<mxfile host="app.diagrams.net" modified="2023-06-07T07:09:20.116Z" agent="Mozilla/5.0 (Windows NT 10.0; Win64; x64; rv:109.0) Gecko/20100101 Firefox/110.0" etag="R0WZbzoFLxPKWvLIg1MC" version="21.3.5" type="github">
  <diagram name="Page-1" id="p_YaUgyWWCoO-w8o537r">
    <mxGraphModel dx="1718" dy="1523" grid="1" gridSize="10" guides="1" tooltips="1" connect="1" arrows="1" fold="1" page="1" pageScale="1" pageWidth="4681" pageHeight="3300" math="0" shadow="0">
      <root>
        <mxCell id="0" />
        <mxCell id="1" parent="0" />
        <mxCell id="_V6IDjI6f9aKt-EAS55Z-19" style="edgeStyle=orthogonalEdgeStyle;rounded=0;orthogonalLoop=1;jettySize=auto;html=1;exitX=1;exitY=0.5;exitDx=0;exitDy=0;entryX=0;entryY=0.5;entryDx=0;entryDy=0;shape=flexArrow;" edge="1" parent="1" source="_V6IDjI6f9aKt-EAS55Z-1" target="_V6IDjI6f9aKt-EAS55Z-4">
          <mxGeometry relative="1" as="geometry" />
        </mxCell>
        <mxCell id="_V6IDjI6f9aKt-EAS55Z-1" value="&lt;font style=&quot;font-size: 24px;&quot;&gt;Check course materials (theory and exercises, including previous ones)&lt;br&gt;&lt;/font&gt;" style="rounded=1;whiteSpace=wrap;html=1;fillColor=#d5e8d4;strokeColor=#82b366;" vertex="1" parent="1">
          <mxGeometry x="1000" y="880" width="290" height="110" as="geometry" />
        </mxCell>
        <mxCell id="_V6IDjI6f9aKt-EAS55Z-15" style="edgeStyle=orthogonalEdgeStyle;rounded=0;orthogonalLoop=1;jettySize=auto;html=1;exitX=1;exitY=0.5;exitDx=0;exitDy=0;entryX=0;entryY=0.5;entryDx=0;entryDy=0;strokeWidth=1;shape=flexArrow;" edge="1" parent="1" source="_V6IDjI6f9aKt-EAS55Z-2" target="_V6IDjI6f9aKt-EAS55Z-3">
          <mxGeometry relative="1" as="geometry" />
        </mxCell>
        <mxCell id="_V6IDjI6f9aKt-EAS55Z-2" value="&lt;b&gt;&lt;font style=&quot;font-size: 55px;&quot;&gt;&lt;font style=&quot;font-size: 55px;&quot;&gt;1&lt;/font&gt;&lt;/font&gt;&lt;/b&gt;" style="ellipse;whiteSpace=wrap;html=1;aspect=fixed;fillColor=#d5e8d4;strokeColor=#82b366;" vertex="1" parent="1">
          <mxGeometry x="1090" y="740" width="110" height="110" as="geometry" />
        </mxCell>
        <mxCell id="_V6IDjI6f9aKt-EAS55Z-16" style="edgeStyle=orthogonalEdgeStyle;rounded=0;orthogonalLoop=1;jettySize=auto;html=1;exitX=1;exitY=0.5;exitDx=0;exitDy=0;entryX=0;entryY=0.5;entryDx=0;entryDy=0;strokeWidth=1;shape=flexArrow;" edge="1" parent="1" source="_V6IDjI6f9aKt-EAS55Z-3" target="_V6IDjI6f9aKt-EAS55Z-5">
          <mxGeometry relative="1" as="geometry" />
        </mxCell>
        <mxCell id="_V6IDjI6f9aKt-EAS55Z-3" value="&lt;font style=&quot;font-size: 55px;&quot;&gt;&lt;b&gt;&lt;font style=&quot;font-size: 55px;&quot;&gt;2&lt;/font&gt;&lt;/b&gt;&lt;/font&gt;" style="ellipse;whiteSpace=wrap;html=1;aspect=fixed;fillColor=#dae8fc;strokeColor=#6c8ebf;" vertex="1" parent="1">
          <mxGeometry x="1420" y="740" width="110" height="110" as="geometry" />
        </mxCell>
        <mxCell id="_V6IDjI6f9aKt-EAS55Z-20" style="edgeStyle=orthogonalEdgeStyle;rounded=0;orthogonalLoop=1;jettySize=auto;html=1;exitX=1;exitY=0.5;exitDx=0;exitDy=0;entryX=0;entryY=0.5;entryDx=0;entryDy=0;shape=flexArrow;" edge="1" parent="1" source="_V6IDjI6f9aKt-EAS55Z-4" target="_V6IDjI6f9aKt-EAS55Z-6">
          <mxGeometry relative="1" as="geometry" />
        </mxCell>
        <mxCell id="_V6IDjI6f9aKt-EAS55Z-4" value="&lt;font style=&quot;font-size: 24px;&quot;&gt;Google it! (See tips)&lt;br&gt;&lt;/font&gt;" style="rounded=1;whiteSpace=wrap;html=1;fillColor=#dae8fc;strokeColor=#6c8ebf;" vertex="1" parent="1">
          <mxGeometry x="1330" y="880" width="290" height="110" as="geometry" />
        </mxCell>
        <mxCell id="_V6IDjI6f9aKt-EAS55Z-18" style="edgeStyle=orthogonalEdgeStyle;rounded=0;orthogonalLoop=1;jettySize=auto;html=1;exitX=1;exitY=0.5;exitDx=0;exitDy=0;entryX=0;entryY=0.5;entryDx=0;entryDy=0;strokeWidth=1;shape=flexArrow;" edge="1" parent="1" source="_V6IDjI6f9aKt-EAS55Z-5" target="_V6IDjI6f9aKt-EAS55Z-7">
          <mxGeometry relative="1" as="geometry" />
        </mxCell>
        <mxCell id="_V6IDjI6f9aKt-EAS55Z-5" value="&lt;font style=&quot;font-size: 55px;&quot;&gt;&lt;b&gt;&lt;font style=&quot;font-size: 55px;&quot;&gt;3&lt;/font&gt;&lt;/b&gt;&lt;/font&gt;" style="ellipse;whiteSpace=wrap;html=1;aspect=fixed;fillColor=#fff2cc;strokeColor=#d6b656;" vertex="1" parent="1">
          <mxGeometry x="1750" y="740" width="110" height="110" as="geometry" />
        </mxCell>
        <mxCell id="_V6IDjI6f9aKt-EAS55Z-21" style="edgeStyle=orthogonalEdgeStyle;rounded=0;orthogonalLoop=1;jettySize=auto;html=1;exitX=1;exitY=0.5;exitDx=0;exitDy=0;entryX=0;entryY=0.5;entryDx=0;entryDy=0;shape=flexArrow;" edge="1" parent="1" source="_V6IDjI6f9aKt-EAS55Z-6" target="_V6IDjI6f9aKt-EAS55Z-8">
          <mxGeometry relative="1" as="geometry" />
        </mxCell>
        <mxCell id="_V6IDjI6f9aKt-EAS55Z-6" value="&lt;font style=&quot;font-size: 24px;&quot;&gt;Ask your question in the chat&lt;br&gt;&lt;/font&gt;" style="rounded=1;whiteSpace=wrap;html=1;fillColor=#fff2cc;strokeColor=#d6b656;" vertex="1" parent="1">
          <mxGeometry x="1660" y="880" width="290" height="110" as="geometry" />
        </mxCell>
        <mxCell id="_V6IDjI6f9aKt-EAS55Z-7" value="&lt;font style=&quot;font-size: 55px;&quot;&gt;&lt;b&gt;&lt;font style=&quot;font-size: 55px;&quot;&gt;3&lt;/font&gt;&lt;/b&gt;&lt;/font&gt;" style="ellipse;whiteSpace=wrap;html=1;aspect=fixed;fillColor=#f8cecc;strokeColor=#b85450;" vertex="1" parent="1">
          <mxGeometry x="2080" y="740" width="110" height="110" as="geometry" />
        </mxCell>
        <mxCell id="_V6IDjI6f9aKt-EAS55Z-8" value="&lt;font style=&quot;font-size: 24px;&quot;&gt;Mention/ping the teachers in the chat&lt;br&gt;&lt;/font&gt;" style="rounded=1;whiteSpace=wrap;html=1;fillColor=#f8cecc;strokeColor=#b85450;" vertex="1" parent="1">
          <mxGeometry x="1990" y="880" width="290" height="110" as="geometry" />
        </mxCell>
      </root>
    </mxGraphModel>
  </diagram>
</mxfile>
